<?xml version="1.0" standalone="no"?>
<!DOCTYPE svg PUBLIC "-//W3C//DTD SVG 20010904//EN"
 "http://www.w3.org/TR/2001/REC-SVG-20010904/DTD/svg10.dtd">
<svg version="1.0" xmlns="http://www.w3.org/2000/svg"
 width="500.000000pt" height="500.000000pt" viewBox="0 0 500.000000 500.000000"
 preserveAspectRatio="xMidYMid meet">

<g transform="translate(0.000000,500.000000) scale(0.100000,-0.100000)"
fill="#000000" stroke="none">
<path d="M2580 4149 c-37 -15 -68 -48 -81 -86 -9 -27 -7 -40 8 -71 21 -44 67
-63 127 -53 65 10 55 28 -14 27 -53 -1 -64 2 -81 23 -28 35 -24 68 15 107 23
23 43 34 63 34 24 0 199 -53 209 -63 2 -2 -16 -48 -40 -103 -40 -91 -46 -99
-72 -99 -15 0 -29 -6 -31 -12 -3 -8 5 -13 21 -13 14 0 26 -3 26 -7 0 -5 -17
-42 -38 -83 -59 -118 -139 -154 -203 -91 -58 58 -25 153 64 181 55 18 61 30
14 30 -53 0 -107 -46 -145 -123 -29 -59 -91 -127 -115 -127 -10 0 -4 29 38
185 41 150 42 157 29 162 -6 2 -24 -43 -43 -109 -47 -162 -85 -221 -134 -202
-29 11 -28 39 4 166 29 113 33 155 13 135 -6 -6 -45 -131 -71 -229 -14 -54
-43 -98 -63 -98 -25 0 -31 42 -20 131 7 50 10 92 8 93 -1 2 -25 7 -53 12 -39
7 -50 13 -51 29 -2 46 -5 54 -24 60 -47 15 -68 -48 -28 -84 21 -20 21 -21 4
-88 -10 -37 -23 -95 -30 -127 -13 -57 -37 -91 -60 -83 -17 6 -24 46 -25 139
l-1 87 -52 3 c-48 3 -53 5 -56 28 -7 50 -51 69 -72 31 -14 -27 -13 -30 18 -59
32 -30 31 -12 3 -200 -5 -34 -16 -73 -25 -87 -21 -32 -67 -55 -95 -48 -20 5
-51 49 -51 72 0 5 22 33 50 61 57 58 76 109 57 149 -28 59 -104 26 -126 -55
-25 -90 -4 -221 40 -244 37 -21 86 -12 122 23 40 37 52 75 69 205 l11 92 44 0
43 0 0 -91 c0 -106 9 -129 50 -129 46 0 66 31 95 153 15 62 29 119 31 127 3
12 14 15 43 12 l39 -4 -6 -103 c-5 -102 -5 -103 21 -120 28 -18 48 -12 81 24
17 18 20 19 34 4 11 -11 28 -14 59 -10 67 7 54 -22 -21 -49 -71 -25 -106 -56
-106 -94 0 -38 44 -74 80 -65 33 7 78 60 92 108 9 30 23 46 64 72 29 19 60 46
70 60 18 27 34 33 34 12 0 -21 43 -56 80 -67 43 -12 105 2 137 32 14 12 43 60
65 106 l40 82 45 0 c53 0 56 23 4 28 -30 3 -32 6 -26 29 3 14 22 59 41 100 27
56 39 73 52 69 81 -22 153 -10 160 26 9 47 -78 64 -147 28 l-39 -19 -85 28
c-103 35 -154 43 -187 30z m428 -61 c-5 -15 -50 -22 -86 -13 -21 5 -23 8 -11
16 22 14 101 11 97 -3z m-1068 -178 c0 -11 -4 -20 -10 -20 -5 0 -10 2 -10 4 0
2 -3 11 -6 20 -4 11 -1 16 10 16 9 0 16 -8 16 -20z m-271 -86 c3 -16 1 -17
-13 -5 -19 16 -21 34 -3 29 6 -3 14 -13 16 -24z m-114 -84 c13 -20 -6 -66 -45
-110 l-39 -45 -1 50 c0 58 29 115 59 115 11 0 23 -5 26 -10z m691 -204 c-8
-34 -54 -86 -75 -86 -24 0 -41 20 -41 47 0 23 36 48 90 63 31 9 34 7 26 -24z"/>
<path d="M3015 3894 c-112 -58 -182 -216 -121 -273 33 -31 101 -32 150 -3 30
18 36 19 36 6 0 -9 15 -31 34 -50 29 -29 41 -34 79 -34 88 0 140 77 119 176
-10 47 -10 50 18 79 44 47 44 85 0 85 -23 0 -33 -7 -45 -30 -8 -16 -15 -38
-15 -48 0 -11 -7 -22 -15 -26 -21 -8 -19 -26 4 -26 19 0 31 -34 31 -91 0 -45
-47 -91 -94 -91 -76 0 -113 76 -61 127 39 40 85 28 85 -22 0 -14 6 -23 15 -23
19 0 20 39 0 67 -18 26 -56 36 -89 23 -14 -5 -47 -32 -73 -59 -26 -27 -60 -53
-75 -56 -68 -17 -118 28 -99 88 11 32 15 35 65 40 29 3 72 15 95 27 65 33 79
100 24 121 -32 12 -33 12 -68 -7z m73 -41 c2 -16 -6 -28 -29 -42 -35 -21 -106
-37 -117 -26 -4 3 15 27 41 51 36 35 54 45 75 42 19 -2 28 -9 30 -25z m252 -1
c0 -5 -9 -17 -20 -27 -22 -20 -26 -14 -10 16 11 19 30 26 30 11z"/>
<path d="M3541 3809 c-18 -22 -38 -38 -45 -36 -46 17 -56 18 -56 3 0 -9 6 -16
14 -16 32 0 22 -20 -45 -96 -39 -43 -78 -92 -86 -108 -30 -58 21 -100 93 -78
32 10 34 9 34 -14 0 -36 42 -60 84 -47 30 9 33 8 29 -7 -5 -20 29 -60 51 -60
8 0 27 5 41 10 23 9 32 6 57 -15 16 -14 40 -25 54 -25 21 0 23 -2 13 -26 -7
-20 -6 -32 6 -50 15 -23 32 -28 86 -25 23 2 25 -1 21 -32 -3 -30 0 -35 27 -47
17 -7 40 -10 51 -7 17 4 19 1 14 -19 -8 -32 18 -62 61 -70 34 -6 151 21 161
38 12 19 -8 21 -64 4 -67 -21 -111 -18 -126 7 -15 26 14 47 195 143 82 43 149
85 149 92 0 6 -3 12 -6 12 -4 0 -63 -29 -133 -65 -219 -113 -264 -128 -300
-106 -25 16 7 49 119 123 107 69 135 96 87 84 -19 -4 -25 0 -34 24 -15 41 -54
55 -113 40 -46 -12 -107 -41 -149 -72 -30 -22 -84 -23 -102 -2 -16 19 -22 14
116 98 67 40 94 61 87 68 -8 8 -39 -7 -101 -45 -50 -31 -88 -50 -84 -42 11 31
-28 14 -48 -20 -15 -25 -30 -36 -54 -41 -37 -7 -55 0 -55 21 0 14 95 104 167
158 40 30 55 57 34 57 -6 0 -37 -22 -70 -50 -33 -27 -63 -50 -66 -50 -3 0 -32
-18 -64 -41 -63 -44 -104 -50 -109 -14 -2 14 26 49 93 115 52 52 95 98 95 102
0 20 -29 4 -76 -43 -28 -28 -60 -56 -71 -62 -11 -7 -41 -27 -68 -44 -79 -53
-140 -38 -99 25 9 15 47 60 83 100 67 74 75 78 124 57 12 -5 17 -3 17 9 0 9
-3 16 -7 16 -5 0 -15 4 -23 10 -12 7 -9 16 18 49 36 44 38 51 19 51 -8 0 -28
-18 -46 -41z m517 -401 c27 -27 13 -57 -44 -94 -111 -71 -178 -90 -205 -58
-19 23 7 60 72 106 78 53 151 72 177 46z"/>
<path d="M1135 3790 c-45 -10 -68 -25 -108 -69 -42 -46 -62 -108 -53 -165 9
-55 46 -136 62 -136 19 0 18 9 -6 54 -26 52 -35 120 -21 166 14 49 87 117 135
126 90 16 156 -65 130 -163 -4 -14 -17 -23 -39 -27 -19 -4 -44 -15 -57 -26
-19 -15 -21 -22 -12 -37 16 -24 52 -19 84 12 33 32 51 31 90 -1 86 -73 78
-179 -17 -225 -33 -16 -46 -18 -62 -9 -35 18 -43 45 -22 71 16 20 22 22 44 12
19 -9 28 -9 33 -2 18 30 -73 40 -99 11 -42 -46 -3 -122 62 -122 73 0 151 78
151 151 -1 58 -74 159 -117 159 -12 0 -14 9 -8 50 15 109 -70 194 -170 170z
m85 -255 c-7 -8 -18 -15 -24 -15 -6 0 -2 7 8 15 25 19 32 19 16 0z"/>
<path d="M3701 3746 c-8 -10 -7 -17 3 -26 17 -13 36 -6 36 15 0 19 -27 26 -39
11z"/>
<path d="M1099 3724 c-22 -27 -15 -108 20 -229 51 -176 43 -270 -25 -295 -37
-14 -52 -12 -74 10 -13 13 -20 33 -20 58 0 26 7 45 20 57 23 21 26 35 6 35
-24 0 -56 -50 -56 -87 0 -79 57 -124 127 -100 90 30 103 116 49 325 -38 150
-43 191 -24 210 8 8 9 15 2 22 -8 8 -15 6 -25 -6z"/>
<path d="M2241 3326 c-26 -14 -50 -51 -51 -77 0 -11 -8 -14 -29 -11 -22 3 -36
-2 -55 -21 -30 -30 -33 -53 -10 -85 14 -21 14 -24 -10 -53 -15 -17 -26 -43
-26 -59 0 -19 -7 -33 -20 -40 -27 -15 -36 -55 -17 -83 10 -15 12 -29 6 -38
-16 -25 -10 -85 11 -112 11 -14 37 -32 56 -39 25 -9 42 -24 54 -49 26 -50 62
-245 58 -313 l-3 -56 -35 47 c-39 53 -100 93 -143 93 -17 0 -38 -10 -54 -26
-24 -24 -25 -29 -19 -100 7 -71 6 -74 -14 -74 -33 0 -70 -44 -70 -82 0 -72 54
-108 162 -108 73 -1 73 -1 50 -20 -12 -10 -66 -33 -120 -51 -118 -39 -152 -55
-174 -83 -40 -48 -9 -92 41 -57 29 21 169 67 177 58 18 -18 -77 -135 -137
-169 -21 -12 -41 -30 -45 -40 -8 -26 22 -68 49 -68 12 0 28 -9 35 -20 10 -17
19 -20 46 -15 25 5 35 3 39 -9 9 -23 44 -19 61 7 7 12 16 44 20 70 6 49 34
121 64 167 l16 25 8 -35 c4 -19 11 -83 14 -142 7 -103 8 -106 31 -111 21 -4
28 1 41 32 26 60 27 169 2 267 -29 117 -15 152 29 73 56 -99 126 -148 211
-149 45 0 82 17 108 48 16 21 15 71 -3 102 -20 35 -19 37 21 56 40 19 64 61
56 99 -6 33 -41 63 -97 84 l-48 18 44 30 c79 54 294 153 333 153 10 0 16 -9
16 -24 0 -32 34 -73 67 -79 37 -7 87 15 109 47 14 23 21 26 51 20 70 -13 145
48 130 106 -3 14 3 29 19 45 14 14 24 36 24 53 0 18 10 38 30 57 35 33 41 87
14 116 -14 16 -15 23 -4 49 20 47 6 79 -45 101 -25 11 -45 27 -45 35 0 8 -12
27 -27 42 -22 21 -28 37 -28 72 0 39 -4 46 -29 58 -23 11 -36 12 -67 3 -35
-11 -40 -9 -63 14 -14 14 -29 25 -35 25 -5 0 -23 14 -39 30 -32 32 -47 36 -72
20 -11 -7 -22 -1 -42 20 -21 23 -36 30 -65 30 -33 0 -40 5 -53 33 -19 42 -57
55 -113 39 -41 -11 -43 -10 -67 19 -50 59 -132 25 -146 -60 -5 -31 -11 -41
-25 -41 -15 0 -19 7 -19 35 0 51 -24 91 -61 104 -40 14 -48 13 -78 -3z m94
-27 c24 -19 26 -27 23 -70 -3 -47 1 -53 28 -50 7 1 24 -3 38 -9 35 -13 48 -47
30 -81 -14 -29 -33 -39 -70 -39 -13 0 -24 -3 -25 -7 -6 -69 -32 -104 -87 -118
-28 -7 -62 18 -62 45 0 28 -12 31 -36 9 -37 -35 -94 -3 -94 52 0 23 7 34 30
47 35 20 38 32 10 50 -24 15 -26 55 -3 77 12 13 26 15 58 11 l41 -7 -4 34 c-3
28 1 38 23 56 35 27 65 27 100 0z m218 -19 c14 -16 29 -39 32 -50 6 -20 7 -20
26 4 26 34 51 40 92 23 42 -18 50 -46 26 -91 l-19 -35 28 -13 c29 -14 38 -43
27 -85 -5 -21 -10 -24 -34 -20 -16 3 -40 -1 -56 -9 -27 -14 -30 -13 -56 12
-24 23 -33 25 -65 19 -22 -4 -49 -19 -65 -36 -25 -27 -29 -28 -43 -13 -22 22
-20 38 9 72 30 36 32 78 5 112 -30 38 -26 83 11 114 39 33 52 33 82 -4z m304
-126 c26 -28 37 -34 46 -25 24 24 77 6 77 -25 0 -7 -9 -16 -20 -19 -11 -4 -27
-20 -35 -36 -19 -36 -44 -37 -75 -4 -13 14 -31 25 -41 25 -10 0 -21 9 -24 20
-4 12 -16 29 -27 39 -19 19 -19 19 3 40 32 30 57 26 96 -15z m178 -80 c9 -4
21 -18 26 -31 8 -23 10 -23 38 -8 41 21 74 19 97 -6 18 -20 18 -22 1 -51 -22
-39 -22 -45 8 -52 14 -4 32 -18 41 -31 15 -24 15 -27 0 -44 -9 -10 -30 -21
-47 -25 -28 -5 -29 -7 -23 -45 5 -34 3 -43 -19 -65 -15 -14 -35 -26 -46 -26
-11 0 -25 -2 -33 -5 -23 -9 -78 50 -78 84 0 30 -1 31 -45 29 -53 -3 -77 16
-77 58 0 26 7 35 56 67 16 11 17 17 7 34 -36 69 23 144 94 117z m-195 -40 c0
-10 -44 -43 -57 -44 -17 0 -16 5 2 41 13 25 19 28 35 19 11 -6 20 -13 20 -16z
m-420 -19 c0 -9 -9 -15 -25 -15 -16 0 -25 6 -25 15 0 9 9 15 25 15 16 0 25 -6
25 -15z m190 -15 c14 -14 20 -33 20 -65 0 -42 2 -45 28 -45 32 0 42 -7 65 -40
35 -51 9 -110 -49 -110 -31 0 -34 -8 -18 -46 18 -42 9 -80 -22 -101 -20 -13
-29 -13 -54 -3 -17 7 -30 15 -30 19 0 3 -9 17 -20 31 l-19 25 -30 -32 c-34
-38 -62 -42 -91 -13 -26 26 -25 70 1 104 12 15 20 28 18 30 -2 1 -16 7 -32 14
-38 16 -51 54 -33 97 17 39 47 51 101 41 35 -7 35 -7 35 29 0 69 84 111 130
65z m293 -7 c26 -30 23 -49 -10 -77 -38 -32 -44 -76 -17 -115 14 -19 14 -27 4
-47 -17 -31 -21 -30 -42 6 -11 20 -28 33 -48 37 l-31 6 21 19 c41 38 9 104
-38 79 -13 -7 -31 -6 -55 1 -29 9 -37 17 -37 35 0 29 33 63 62 63 12 0 35 -12
51 -27 22 -21 31 -24 35 -14 16 47 76 66 105 34z m-745 -41 c22 2 37 -2 40
-10 2 -6 -4 -12 -13 -12 -32 0 -86 -33 -100 -61 -29 -55 -13 -97 43 -114 28
-8 24 -29 -7 -33 -28 -4 -91 57 -91 89 0 12 7 30 16 40 15 16 15 20 0 41 -37
52 -6 99 47 71 16 -8 45 -13 65 -11z m284 11 c27 -24 23 -40 -11 -35 -35 5
-89 -22 -102 -52 -6 -12 -24 -27 -40 -33 -33 -13 -44 -33 -35 -68 7 -29 46
-43 79 -28 37 17 49 6 31 -28 -10 -20 -13 -41 -8 -64 5 -31 4 -35 -14 -35 -28
0 -52 26 -52 56 l0 24 -32 -20 c-72 -44 -131 -9 -83 48 l25 30 -39 7 c-52 9
-73 26 -73 59 0 53 70 100 135 89 48 -7 77 1 122 37 43 34 70 38 97 13z m342
-89 c6 -16 -9 -44 -24 -44 -10 0 -30 47 -23 54 12 12 41 6 47 -10z m549 -52
c21 -19 22 -51 1 -81 -15 -21 -15 -23 4 -37 25 -17 36 -58 22 -84 -6 -10 -23
-26 -38 -35 -23 -14 -27 -22 -24 -49 3 -22 -2 -37 -17 -50 -31 -29 -43 -9 -26
41 12 36 13 48 1 81 -8 21 -12 50 -9 65 4 19 -2 33 -19 50 -14 14 -28 38 -31
54 -5 26 -1 30 41 49 49 22 65 21 95 -4z m-1009 -14 c9 -35 7 -45 -9 -52 -9
-3 -24 3 -35 14 -16 16 -18 25 -10 40 15 27 46 25 54 -2z m490 -43 c8 -8 18
-24 21 -35 5 -17 12 -19 44 -14 47 7 58 -6 35 -41 -11 -18 -15 -38 -11 -65 3
-25 1 -40 -6 -40 -5 0 -26 -12 -45 -27 -34 -25 -36 -26 -63 -11 -24 14 -30 14
-40 2 -18 -22 -57 -17 -75 11 -14 21 -14 30 -4 55 7 17 10 50 7 75 -4 41 -2
46 18 51 13 3 33 17 46 30 26 28 51 31 73 9z m166 -4 c17 -32 12 -51 -12 -51
-31 1 -72 36 -64 55 8 22 63 19 76 -4z m238 -43 c7 -7 12 -23 12 -35 0 -20 -3
-22 -17 -14 -46 26 -47 29 -34 45 16 19 23 20 39 4z m-184 -34 c9 -8 16 -19
16 -24 0 -5 16 -2 37 6 47 20 92 11 126 -24 38 -40 44 -83 17 -126 l-21 -36
25 -23 c34 -32 34 -69 0 -96 -28 -22 -88 -28 -113 -12 -10 7 -20 1 -35 -22
-32 -48 -66 -63 -103 -48 -36 15 -53 47 -46 84 5 24 2 27 -20 27 -14 0 -33 3
-42 6 -17 7 -45 54 -45 78 0 22 49 76 70 76 26 0 32 14 20 46 -26 68 65 138
114 88z m-742 -53 c19 -19 41 -30 70 -34 24 -3 52 -9 64 -12 14 -5 30 2 52 20
l32 27 29 -31 c23 -24 37 -31 68 -31 32 0 41 -5 55 -30 22 -38 43 -46 81 -32
40 15 77 -8 77 -48 0 -16 11 -42 26 -59 l26 -31 -28 -10 c-85 -33 -179 -79
-259 -128 -91 -55 -115 -62 -255 -78 -84 -9 -92 5 -101 164 -4 70 -17 170 -28
222 -12 52 -21 95 -21 97 0 2 10 3 23 3 12 0 29 5 37 10 21 14 22 13 52 -19z
m-193 -245 c43 -32 87 -93 106 -146 8 -24 14 -44 12 -46 -1 -1 -17 26 -36 61
-49 96 -141 171 -141 116 0 -18 108 -173 130 -186 5 -3 -6 -33 -24 -68 l-33
-62 -59 -3 c-106 -6 -167 27 -167 90 0 35 40 78 74 78 22 0 24 17 8 74 -27 98
49 152 130 92z m36 -84 c19 -26 39 -60 44 -77 10 -29 10 -29 -25 10 -38 43
-94 120 -94 130 0 16 44 -21 75 -63z m105 -142 c11 -6 17 -16 13 -25 -4 -13
-1 -14 19 -6 58 22 61 -29 5 -106 -33 -47 -72 -57 -72 -18 0 16 -6 19 -27 17
-14 -2 -29 2 -33 8 -12 19 5 78 31 110 28 33 36 35 64 20z m297 -11 c69 -12
123 -50 123 -87 0 -30 -36 -69 -75 -82 -19 -6 -35 -13 -35 -16 0 -2 9 -18 20
-36 28 -47 26 -92 -6 -117 -43 -34 -86 -36 -148 -8 -55 25 -88 61 -130 139
l-19 35 33 48 33 47 51 -6 c164 -21 206 -20 206 9 0 30 -60 49 -152 50 -92 0
-115 10 -50 20 20 4 42 8 47 10 18 6 38 5 102 -6z m1 -57 l37 -17 -50 -3 c-59
-4 -191 17 -178 28 25 24 131 19 191 -8z m-392 -84 c13 -20 -62 -74 -129 -93
-34 -10 -93 -28 -131 -41 -39 -13 -75 -20 -83 -15 -25 13 18 40 141 86 63 24
128 51 143 59 34 19 50 20 59 4z m74 -82 c0 -16 10 -70 22 -118 19 -78 20 -96
10 -150 -13 -70 -17 -77 -37 -57 -24 24 -58 362 -38 382 13 13 43 -26 43 -57z
m-110 -132 c-26 -48 -45 -98 -51 -137 -12 -76 -30 -99 -57 -74 -13 12 -28 15
-49 11 -27 -5 -31 -3 -37 20 -5 22 -10 25 -32 20 -26 -7 -44 7 -44 33 0 7 24
28 54 48 49 32 82 72 140 168 9 15 21 27 27 27 5 0 27 11 47 25 l37 25 3 -45
c3 -39 -4 -59 -38 -121z"/>
<path d="M2220 3150 c-22 -41 12 -81 50 -60 24 13 32 37 20 61 -14 25 -56 25
-70 -1z m50 -34 c-7 -9 -17 -16 -22 -16 -16 0 -21 30 -7 46 11 13 14 13 27 0
13 -12 13 -18 2 -30z"/>
<path d="M2572 3149 c-27 -10 -36 -31 -28 -63 8 -33 40 -42 72 -21 48 31 10
105 -44 84z m32 -15 c24 -9 20 -51 -4 -59 -20 -6 -50 9 -50 26 0 7 28 39 35
39 2 0 10 -3 19 -6z"/>
<path d="M3042 2934 c-12 -8 -22 -26 -22 -39 0 -23 32 -55 57 -55 19 0 43 30
43 55 0 20 -32 55 -50 55 -3 0 -16 -7 -28 -16z m56 -33 c5 -30 -10 -45 -37
-36 -13 4 -21 15 -21 30 0 40 53 46 58 6z"/>
<path d="M2502 2838 c-20 -20 -15 -76 8 -88 30 -16 74 8 78 41 5 47 -54 79
-86 47z m67 -27 c13 -24 -8 -55 -34 -50 -28 6 -42 34 -26 53 18 22 48 20 60
-3z"/>
<path d="M2741 2668 c-15 -41 14 -74 54 -64 29 7 43 49 25 71 -20 24 -69 19
-79 -7z m66 -32 c-4 -9 -16 -16 -27 -16 -29 0 -38 30 -15 47 16 11 21 11 33
-1 8 -8 12 -22 9 -30z"/>
<path d="M3016 2538 c-9 -12 -16 -26 -16 -30 0 -16 40 -48 60 -48 23 0 60 33
60 54 0 45 -77 62 -104 24z m70 -2 c26 -20 7 -51 -32 -51 -35 0 -46 32 -18 52
22 16 26 16 50 -1z"/>
</g>
</svg>
